<?xml version="1.0" encoding="UTF-8"?>
<svg xmlns="http://www.w3.org/2000/svg" xmlns:xlink="http://www.w3.org/1999/xlink" viewBox="0 0 45 45" width="45px" height="45px">
<g id="surface72397515">
<rect x="0" y="0" width="45" height="45" style="fill:rgb(0%,0%,0%);fill-opacity:1;stroke:none;"/>
<path style=" stroke:none;fill-rule:nonzero;fill:rgb(90.588236%,29.803923%,23.529412%);fill-opacity:1;" d="M 11.25 5.625 L 11.25 8.4375 L 33.75 8.4375 L 33.75 5.625 Z M 33.75 8.4375 L 33.75 11.25 L 36.5625 11.25 L 36.5625 8.4375 Z M 36.5625 11.25 L 36.5625 33.75 L 39.375 33.75 L 39.375 11.25 Z M 36.5625 33.75 L 33.75 33.75 L 33.75 36.5625 L 36.5625 36.5625 Z M 33.75 36.5625 L 11.25 36.5625 L 11.25 39.375 L 33.75 39.375 Z M 11.25 36.5625 L 11.25 33.75 L 8.4375 33.75 L 8.4375 36.5625 Z M 8.4375 33.75 L 8.4375 11.25 L 5.625 11.25 L 5.625 33.75 Z M 8.4375 11.25 L 11.25 11.25 L 11.25 8.4375 L 8.4375 8.4375 Z M 29.53125 12.65625 L 29.53125 15.46875 L 32.34375 15.46875 L 32.34375 12.65625 Z M 18.28125 15.46875 L 18.28125 18.28125 L 26.71875 18.28125 L 26.71875 15.46875 Z M 26.71875 18.28125 L 26.71875 26.71875 L 29.53125 26.71875 L 29.53125 18.28125 Z M 26.71875 26.71875 L 18.28125 26.71875 L 18.28125 29.53125 L 26.71875 29.53125 Z M 18.28125 26.71875 L 18.28125 18.28125 L 15.46875 18.28125 L 15.46875 26.71875 Z M 18.28125 26.71875 "/>
</g>
</svg>
