<?xml version="1.0" standalone="no"?>
<!DOCTYPE svg PUBLIC "-//W3C//DTD SVG 20010904//EN"
 "http://www.w3.org/TR/2001/REC-SVG-20010904/DTD/svg10.dtd">
<svg version="1.0" xmlns="http://www.w3.org/2000/svg"
 width="400.000000pt" height="400.000000pt" viewBox="0 0 400.000000 400.000000"
 preserveAspectRatio="xMidYMid meet">

<g transform="translate(0.000000,400.000000) scale(0.100000,-0.100000)"
fill="#000000" stroke="none">
<path d="M0 2333 l0 -1667 57 57 c139 136 241 203 450 293 81 35 159 72 173
82 14 10 36 41 49 67 14 27 27 43 29 36 2 -7 -1 -18 -7 -24 -6 -6 -11 -20 -11
-30 0 -16 3 -17 15 -7 8 7 15 21 15 32 0 10 7 30 17 44 12 19 18 22 24 12 5
-7 9 -17 9 -23 0 -5 -5 -3 -10 5 -8 13 -10 12 -10 -2 0 -10 7 -19 15 -19 8 -1
21 -2 28 -3 6 -1 11 5 9 12 -1 8 2 11 7 7 15 -9 111 43 111 59 0 8 21 33 47
55 26 22 45 42 42 45 -2 3 -19 -8 -36 -24 -39 -36 -43 -37 -43 -5 0 15 14 38
37 61 21 21 27 29 13 18 -14 -10 -29 -23 -33 -29 -10 -12 2 91 13 120 4 11 22
33 39 49 l31 30 1 -30 c2 -28 2 -27 8 6 4 20 12 34 19 32 7 -1 13 7 14 18 4
52 9 83 27 195 35 211 61 377 75 486 12 95 19 117 61 195 26 49 78 136 115
194 37 58 75 123 85 145 50 115 84 182 99 194 15 13 30 9 32 -7 0 -4 10 -27
22 -52 12 -25 22 -58 22 -75 l1 -30 14 26 c7 14 12 38 10 55 -7 53 6 104 25
104 17 0 50 61 65 123 4 15 11 30 16 33 5 3 6 10 3 16 -4 6 -2 13 3 17 6 3 23
26 38 51 16 25 30 39 33 32 8 -25 23 -11 17 16 -5 23 11 58 83 188 70 125 245
435 269 477 2 4 -500 7 -1116 7 l-1121 0 0 -1667z m1215 424 c14 -11 16 -21
11 -49 -8 -45 -28 -62 -61 -54 -28 7 -34 25 -8 22 20 -1 30 31 14 47 -7 7 -16
5 -31 -8 -20 -18 -20 -18 -20 12 0 16 3 33 7 36 11 12 68 8 88 -6z m-338
-1509 c-3 -7 -5 -2 -5 12 0 14 2 19 5 13 2 -7 2 -19 0 -25z"/>
<path d="M2336 3778 c-9 -12 -16 -27 -16 -33 0 -6 -9 -27 -20 -48 -11 -20 -20
-43 -20 -51 0 -8 -34 -80 -76 -160 -42 -80 -74 -146 -71 -146 3 0 42 70 88
155 74 137 87 155 108 152 20 -2 27 7 49 56 27 62 24 81 -8 52 -25 -23 -34
-16 -21 19 13 32 7 33 -13 4z"/>
<path d="M3180 3703 c-8 -2 -25 -22 -38 -44 -28 -48 -46 -57 -72 -34 -23 21
-60 12 -60 -15 0 -24 -17 -35 -55 -35 -24 0 -31 -5 -38 -32 -6 -18 -16 -33
-25 -33 -9 0 -12 -6 -8 -15 3 -8 9 -21 12 -29 3 -9 -3 -17 -15 -21 -12 -3 -21
-10 -21 -14 0 -4 -6 -16 -14 -26 -12 -17 -16 -18 -31 -5 -16 14 -17 13 -10 -9
4 -14 3 -26 -4 -30 -7 -5 -7 -18 0 -45 6 -22 7 -41 2 -45 -5 -3 -1 -14 8 -23
17 -16 19 -14 39 25 45 85 146 186 193 192 12 1 46 10 76 19 68 20 105 20 186
0 68 -17 79 -26 150 -124 17 -23 48 -63 71 -88 49 -56 67 -89 60 -107 -7 -20
14 -135 25 -135 5 0 8 -9 6 -19 -1 -11 1 -20 6 -20 4 0 19 -12 34 -27 26 -26
27 -27 34 -5 5 11 15 21 22 21 8 0 26 9 41 21 17 14 35 19 50 15 13 -3 31 1
42 9 10 8 26 14 34 15 8 0 4 -6 -10 -13 -14 -7 -33 -29 -43 -50 -12 -23 -26
-37 -38 -37 -23 0 -23 -1 -3 -43 15 -32 15 -37 -1 -75 -19 -42 -49 -59 -71
-41 -7 6 -10 18 -7 26 4 11 2 14 -6 9 -7 -5 -17 5 -26 28 -9 20 -19 36 -24 36
-4 0 -21 18 -36 40 -31 45 -69 54 -80 21 -3 -11 -15 -23 -26 -26 -45 -14 -8
-104 44 -105 9 0 17 -7 17 -16 0 -9 7 -28 16 -44 11 -18 14 -34 9 -46 -5 -11
-9 -23 -10 -29 -1 -5 -17 -27 -37 -48 -35 -38 -38 -39 -110 -40 -40 -1 -102 2
-137 6 -50 6 -67 5 -80 -7 -9 -8 -20 -15 -26 -15 -15 1 -18 -21 -3 -21 8 -1 6
-6 -6 -15 -11 -8 -17 -18 -13 -21 3 -4 2 -15 -4 -26 -9 -17 -17 -19 -67 -13
-153 17 -202 18 -208 1 -3 -9 -14 -16 -23 -16 -31 0 -61 -30 -61 -61 0 -16 -4
-29 -8 -29 -4 0 -13 -14 -19 -31 -10 -25 -9 -30 2 -25 8 3 21 -7 31 -21 14
-22 15 -30 4 -47 -10 -17 -10 -19 1 -8 7 6 20 12 28 12 23 0 50 -30 44 -48 -3
-11 -2 -13 4 -6 9 12 43 15 43 3 0 -4 -4 -9 -9 -11 -5 -1 -41 -72 -80 -156
-40 -85 -83 -171 -96 -191 -23 -37 -25 -38 -67 -31 -24 3 -60 13 -80 20 l-37
14 16 30 c9 17 22 35 29 39 8 4 14 13 14 19 0 6 17 36 38 66 59 87 112 173
102 167 -10 -6 -161 -232 -196 -292 -15 -28 -24 -33 -56 -33 -20 0 -39 3 -41
8 -3 4 16 38 41 76 26 38 62 92 80 120 51 79 -7 9 -80 -97 -68 -98 -69 -99
-87 -88 -14 9 18 67 134 246 75 115 180 278 189 293 4 6 5 12 2 12 -3 0 -33
-42 -67 -92 -34 -51 -67 -100 -74 -108 -8 -8 -20 -26 -27 -40 -34 -65 -202
-309 -209 -303 -4 5 -9 333 -12 731 -4 397 -9 727 -12 732 -4 6 -4 23 0 39 7
32 -11 42 -55 31 -20 -4 -36 -28 -77 -110 -29 -58 -53 -113 -53 -122 0 -10
-18 -55 -39 -100 -37 -79 -85 -258 -151 -568 -11 -52 -29 -122 -39 -155 -10
-33 -24 -86 -31 -118 -6 -31 -15 -55 -20 -52 -5 3 -12 -23 -16 -57 -7 -54 -9
-59 -15 -33 l-7 30 -1 -27 c-1 -20 -6 -28 -20 -28 -15 0 -19 -11 -24 -67 -4
-38 -7 -87 -7 -110 0 -23 -6 -46 -12 -50 -24 -15 -78 -102 -69 -108 6 -3 7
-15 2 -28 -17 -45 -21 -77 -11 -77 5 0 10 12 10 26 0 19 4 25 15 21 11 -5 13
0 8 23 -5 26 -2 30 16 30 17 0 21 -6 21 -30 0 -32 19 -40 39 -16 7 8 23 17 36
20 13 3 34 21 47 39 19 26 23 46 24 107 1 41 9 103 18 138 9 35 16 72 16 81 0
31 77 209 111 256 40 56 63 64 89 33 11 -13 19 -29 20 -36 0 -7 9 -40 21 -74
20 -60 20 -64 4 -207 -17 -153 -21 -178 -32 -168 -9 10 -34 -14 -27 -25 4 -6
-2 -8 -15 -3 -16 5 -27 0 -44 -20 -46 -56 -59 -66 -74 -61 -8 3 -21 -1 -29 -9
-9 -8 -12 -15 -7 -15 4 0 -8 -8 -27 -19 -19 -10 -41 -16 -49 -13 -10 4 -12 1
-6 -7 5 -10 2 -11 -13 -7 -13 5 -27 0 -39 -12 -16 -17 -60 -45 -73 -47 -3 0
-15 -6 -27 -13 -13 -7 -23 -11 -23 -8 0 3 -11 -5 -25 -18 -26 -25 -34 -42 -12
-30 6 4 8 3 4 -1 -16 -18 -35 -13 -29 7 4 17 2 19 -19 13 -33 -10 -55 -31 -84
-82 -15 -24 -44 -55 -66 -68 -21 -14 -39 -32 -39 -40 0 -7 -5 -17 -12 -21 -6
-4 -8 -3 -4 4 3 6 2 13 -4 17 -16 10 -12 22 10 28 11 3 20 11 20 17 0 18 -88
3 -121 -21 -31 -22 -68 -27 -51 -6 9 10 19 118 25 257 2 40 -1 45 -21 48 -12
2 -20 7 -17 12 3 5 12 7 20 3 8 -3 15 0 15 6 0 6 -9 11 -19 11 -15 0 -19 6
-18 26 1 17 -6 31 -21 42 -23 15 -23 15 -16 -14 4 -16 13 -39 21 -50 11 -18
11 -24 1 -35 -7 -8 -13 -34 -13 -59 -1 -25 -3 -64 -7 -87 -3 -29 -1 -49 9 -63
14 -20 14 -51 -2 -92 -5 -13 -2 -18 9 -18 9 0 16 -7 16 -17 0 -9 -3 -14 -6
-10 -8 7 -92 -56 -111 -83 -8 -11 -18 -20 -22 -20 -5 0 -26 -8 -47 -17 -22 -9
-42 -17 -45 -17 -3 -1 -27 -12 -53 -25 -40 -21 -49 -23 -57 -10 -7 11 -9 11
-9 -3 0 -10 -4 -18 -10 -18 -17 0 -11 -29 35 -169 37 -109 44 -142 36 -161 -5
-14 -10 -19 -10 -12 -1 7 -5 11 -10 8 -4 -3 -33 1 -62 8 -30 8 -72 17 -94 20
-22 2 -50 8 -62 11 -14 4 -28 2 -37 -6 -9 -8 -22 -19 -29 -25 -13 -11 -23
-139 -33 -409 -3 -87 -14 -167 -24 -180 -4 -5 -11 -65 -15 -133 l-7 -122 913
0 c616 1 908 4 897 11 -21 12 -32 49 -63 228 -14 76 -34 164 -45 196 -25 73
-26 206 -2 320 15 69 20 80 42 86 38 11 170 10 220 -2 71 -16 145 -71 175
-129 30 -60 55 -150 55 -203 0 -53 16 -38 24 22 13 98 111 238 198 282 120 61
250 19 389 -128 99 -104 130 -193 130 -373 0 -121 -15 -199 -51 -270 l-20 -40
155 0 155 0 0 28 c0 16 -9 76 -19 134 -11 58 -25 172 -32 254 -6 82 -20 201
-30 264 l-19 115 21 17 c30 25 93 40 174 42 l70 1 12 -60 c7 -33 19 -163 28
-290 9 -126 18 -234 20 -240 2 -5 4 72 4 172 1 104 -3 184 -8 188 -6 3 -13 27
-16 53 -3 26 -10 76 -16 111 -10 66 -3 86 28 74 23 -9 18 233 -7 310 -11 34
-29 106 -41 160 -11 53 -23 97 -25 97 -3 0 -23 -9 -45 -21 -23 -11 -47 -18
-55 -15 -11 4 -13 -3 -8 -35 l7 -40 -50 31 c-62 38 -120 50 -129 26 -12 -32
14 -61 98 -108 125 -70 158 -114 158 -208 0 -51 -41 -132 -86 -168 -46 -38
-131 -72 -180 -72 -41 0 -172 28 -178 38 -8 13 -28 244 -22 250 3 3 16 -4 29
-15 63 -58 149 -82 177 -48 16 19 -8 58 -48 79 -79 42 -162 181 -162 271 1 90
59 178 127 191 43 8 101 -8 171 -47 28 -16 52 -25 52 -20 0 18 134 72 182 74
l48 2 0 218 c0 208 -1 220 -22 257 -13 22 -26 40 -30 40 -12 0 -9 -14 5 -29
10 -11 9 -12 -2 -6 -14 8 -14 8 5 -69 5 -21 2 -25 -25 -31 -16 -3 -42 -16 -56
-27 -21 -16 -28 -18 -40 -8 -8 7 -15 18 -15 26 0 7 -5 16 -12 20 -8 5 -9 1 -5
-12 6 -15 2 -13 -14 6 -13 16 -19 34 -17 52 3 15 1 25 -2 23 -4 -3 -13 51 -20
119 -13 132 -11 140 34 198 12 14 36 51 55 82 18 30 41 58 51 61 18 6 45 52
41 72 -1 6 3 14 9 18 5 3 10 15 10 26 0 10 5 19 10 19 6 0 10 15 10 34 0 19 7
41 15 50 13 13 15 56 15 295 -1 274 -2 279 -22 284 -20 6 -20 7 -5 30 15 23
15 24 -8 20 -15 -3 -27 2 -37 16 -8 11 -18 18 -23 13 -4 -4 -4 4 0 16 8 26
-21 62 -50 62 -8 0 -15 7 -15 15 0 18 -5 19 -30 3 -26 -16 -36 -4 -18 21 8 12
18 18 21 14 4 -3 7 -1 7 6 0 6 -6 13 -12 15 -7 2 -28 8 -45 14 -18 5 -33 6
-33 1 0 -10 -61 0 -74 12 -6 5 -20 9 -33 9 -16 0 -23 6 -23 19 0 21 -19 31
-57 31 -15 0 -36 11 -49 25 -23 25 -58 33 -68 17 -7 -12 -99 -7 -122 6 -10 6
-29 6 -46 1 -21 -6 -30 -4 -34 6 -6 16 -23 23 -44 18z m-230 -148 c0 -8 -4
-15 -10 -15 -5 0 -10 7 -10 15 0 8 5 15 10 15 6 0 10 -7 10 -15z m-614 -222
c-11 -11 -17 4 -9 23 7 18 8 18 11 1 2 -10 1 -21 -2 -24z m-9 -198 c17 -46 11
-163 -14 -285 -8 -41 -16 -86 -18 -99 -2 -14 -8 -34 -14 -45 -6 -12 -22 -52
-36 -90 -30 -81 -68 -136 -95 -136 -32 0 -43 67 -37 210 6 137 34 253 87 368
61 131 100 155 127 77z m1591 -202 l26 -28 6 25 c7 23 8 22 15 -13 19 -96 -20
-182 -100 -220 -30 -15 -43 -16 -62 -8 -12 6 -23 15 -23 21 0 5 -4 10 -10 10
-5 0 -10 -7 -10 -15 0 -8 -4 -15 -10 -15 -16 0 -12 50 5 56 8 4 15 12 15 20 0
7 6 17 13 21 8 4 16 15 20 25 5 13 12 15 44 7 51 -12 53 -11 53 6 0 8 -4 15
-10 15 -5 0 -10 6 -10 14 0 8 -12 24 -27 35 l-26 21 23 25 c30 32 37 31 68 -2z
m-298 -668 c0 -8 -6 -15 -12 -16 -7 0 -3 -5 10 -11 26 -13 25 -6 6 -128 -8
-52 -14 -119 -14 -147 1 -45 -2 -53 -17 -53 -10 0 -14 -3 -8 -8 6 -4 11 -14
10 -22 0 -17 -56 -28 -155 -30 -36 -1 -94 -10 -129 -21 -119 -36 -265 -26
-333 23 -14 10 -22 10 -38 0 -30 -18 -60 -15 -60 6 0 10 6 41 14 68 8 27 17
66 21 87 3 20 19 53 35 71 17 19 30 41 30 49 0 9 5 19 10 22 6 3 10 -1 10 -10
0 -9 4 -14 9 -10 5 3 12 -4 16 -15 3 -11 10 -20 14 -20 4 0 22 -16 41 -36 72
-75 95 -96 115 -105 11 -5 27 -13 35 -19 20 -12 141 -70 147 -70 3 0 0 6 -6
14 -9 11 -8 17 4 29 9 10 11 18 5 22 -13 8 -13 55 0 55 24 0 6 19 -55 61 -36
24 -65 48 -64 54 1 23 16 44 48 70 28 24 41 28 82 26 48 -2 95 15 179 64 32
19 50 19 50 0z m-1715 -325 c3 -5 -1 -10 -9 -10 -9 0 -16 5 -16 10 0 6 4 10 9
10 6 0 13 -4 16 -10z m1500 -392 c4 -24 5 -155 3 -293 -3 -244 -4 -251 -28
-299 -44 -88 -102 -111 -235 -95 -144 17 -225 60 -246 129 l-12 40 -18 -29
c-43 -71 -160 -126 -264 -125 -89 1 -115 14 -115 57 0 31 26 166 33 173 2 2
22 -4 45 -13 62 -24 83 -10 128 84 42 89 64 162 64 214 0 20 6 42 13 48 8 6
49 19 93 29 71 17 80 22 93 50 16 35 49 47 96 34 29 -8 29 -9 31 -88 2 -128
24 -347 36 -361 6 -7 21 -13 34 -13 19 0 24 7 30 36 7 36 -2 322 -12 379 -6
32 -9 30 146 79 8 2 29 5 47 5 30 1 32 -1 38 -41z m-1650 -898 c4 -6 -26 -10
-82 -10 -60 0 -83 3 -73 10 20 13 147 13 155 0z m-575 -40 c0 -5 -10 -10 -22
-9 -22 0 -22 1 -3 9 11 5 21 9 23 9 1 1 2 -3 2 -9z"/>
<path d="M2249 3123 c-12 -16 -12 -17 2 -5 27 20 48 4 53 -41 11 -85 13 -91
15 -40 0 28 -3 63 -9 77 -11 30 -41 34 -61 9z"/>
<path d="M2301 2894 c0 -11 3 -14 6 -6 3 7 2 16 -1 19 -3 4 -6 -2 -5 -13z"/>
<path d="M2146 2854 c-4 -20 -5 -38 -3 -40 3 -3 8 11 11 32 4 20 5 38 3 40 -3
3 -8 -11 -11 -32z"/>
<path d="M2236 2835 c-7 -18 -36 -20 -37 -2 -1 6 -5 -10 -10 -38 -9 -51 -6
-75 9 -75 11 0 37 56 46 98 8 33 3 44 -8 17z"/>
<path d="M2132 2780 c0 -14 2 -19 5 -12 2 6 2 18 0 25 -3 6 -5 1 -5 -13z"/>
<path d="M2131 2570 c-1 -43 12 -65 33 -57 16 7 56 64 56 82 0 6 -9 -5 -20
-22 -11 -18 -26 -33 -35 -33 -8 0 -19 15 -24 33 l-9 32 -1 -35z"/>
<path d="M3840 2760 c-12 -8 -9 -10 13 -10 16 0 26 4 22 10 -8 12 -16 12 -35
0z"/>
<path d="M3787 2729 c7 -25 30 -36 45 -21 14 14 -7 42 -32 42 -13 0 -17 -5
-13 -21z"/>
<path d="M2966 1885 c-3 -8 -1 -15 4 -15 6 0 10 7 10 15 0 8 -2 15 -4 15 -2 0
-6 -7 -10 -15z"/>
<path d="M3134 3289 c-18 -5 -53 -24 -79 -42 -37 -25 -51 -43 -68 -86 l-20
-55 36 -33 c20 -18 45 -33 56 -33 10 0 21 -7 25 -15 15 -40 68 15 82 84 6 27
10 31 40 31 19 0 37 -6 41 -15 7 -12 19 -13 61 -6 65 10 77 20 57 48 -10 14
-46 31 -102 49 -80 25 -85 28 -67 41 14 11 34 13 72 9 61 -7 70 8 15 23 -45
13 -106 13 -149 0z"/>
<path d="M2026 3144 c-42 -80 -75 -148 -72 -151 2 -2 38 62 80 143 41 81 74
149 72 151 -2 2 -38 -63 -80 -143z"/>
<path d="M2802 3104 c-26 -18 -29 -36 -4 -28 52 17 71 27 66 35 -8 14 -37 11
-62 -7z"/>
<path d="M3192 3073 c-16 -30 -16 -31 13 -25 28 5 44 22 21 22 -8 0 -16 6 -18
12 -3 8 -9 5 -16 -9z"/>
<path d="M2830 3043 c-35 -41 -50 -69 -50 -95 0 -35 16 -45 24 -14 3 14 21 35
39 47 33 23 66 58 67 72 0 15 -66 7 -80 -10z"/>
<path d="M1754 3013 c-3 -10 -14 -34 -24 -55 -23 -43 -18 -50 57 -76 30 -10
48 -22 45 -30 -5 -15 10 -16 26 0 17 17 66 -7 58 -29 -5 -13 -4 -14 9 -3 8 7
15 18 15 25 0 14 -57 38 -71 29 -12 -7 -11 13 1 36 8 15 17 18 41 13 28 -5 30
-4 27 18 -2 18 -9 24 -30 24 -14 1 -33 7 -42 14 -9 7 -16 10 -16 5 0 -5 -4 -4
-8 1 -4 6 -17 16 -29 23 -20 11 -23 10 -23 -7 0 -11 -4 -22 -9 -26 -15 -9 -24
14 -11 30 7 9 8 15 0 20 -5 3 -13 -2 -16 -12z"/>
<path d="M2864 2902 c-36 -23 -50 -63 -33 -94 12 -22 12 -22 21 -3 5 11 27 26
48 33 49 15 65 15 89 1 19 -13 71 -5 71 10 0 5 -16 21 -36 36 -49 37 -116 44
-160 17z"/>
<path d="M3430 2901 c0 -5 5 -13 10 -16 6 -3 10 -2 10 4 0 5 -4 13 -10 16 -5
3 -10 2 -10 -4z"/>
<path d="M1651 2814 c0 -11 3 -14 6 -6 3 7 2 16 -1 19 -3 4 -6 -2 -5 -13z"/>
<path d="M2911 2821 c-24 -15 -4 -38 41 -46 24 -4 35 -10 26 -12 -10 -3 -18
-9 -18 -14 0 -5 -6 -9 -14 -9 -7 0 -19 -6 -26 -14 -6 -8 -18 -12 -25 -9 -16 6
-56 -23 -87 -63 l-21 -27 43 29 c42 28 48 29 171 29 74 0 132 4 138 10 27 27
-26 85 -78 85 -11 0 -24 6 -28 13 -8 15 -65 37 -92 37 -9 0 -22 -4 -30 -9z"/>
<path d="M1761 2628 c-87 -169 -126 -258 -115 -258 6 0 216 432 211 436 -2 2
-45 -78 -96 -178z"/>
<path d="M2843 2609 c-33 -21 -42 -42 -22 -55 6 -3 16 -1 22 5 6 6 19 11 29
11 25 0 98 38 98 50 0 19 -94 11 -127 -11z"/>
<path d="M2751 2599 c-17 -7 -21 -13 -13 -22 5 -6 12 -19 14 -27 4 -10 9 -6
17 14 15 38 11 46 -18 35z"/>
<path d="M1346 2292 c-35 -58 -46 -89 -27 -77 5 3 12 -3 14 -12 3 -10 4 -4 3
12 -3 31 15 77 42 108 8 9 13 20 10 23 -3 3 -22 -22 -42 -54z"/>
<path d="M1886 2323 c-4 -9 -2 -21 4 -27 7 -7 10 -2 10 17 0 31 -5 34 -14 10z"/>
<path d="M2750 2280 c-6 -11 -8 -20 -6 -20 3 0 10 9 16 20 6 11 8 20 6 20 -3
0 -10 -9 -16 -20z"/>
<path d="M2700 2213 c0 -6 -16 -31 -35 -56 -36 -48 -41 -57 -27 -57 5 0 15 12
23 28 7 15 22 39 33 54 11 15 17 31 13 35 -4 3 -7 2 -7 -4z"/>
<path d="M1301 2164 c0 -11 3 -14 6 -6 3 7 2 16 -1 19 -3 4 -6 -2 -5 -13z"/>
<path d="M1320 2162 c0 -9 -7 -29 -14 -44 -22 -41 -11 -34 23 15 26 39 27 43
10 44 -12 1 -19 -5 -19 -15z"/>
<path d="M2841 2127 c-73 -110 -150 -237 -143 -237 7 1 35 43 134 204 55 89
61 112 9 33z"/>
<path d="M1748 2089 c-15 -35 -30 -75 -33 -89 -4 -14 -16 -34 -26 -46 -10 -11
-31 -54 -45 -95 -14 -41 -30 -80 -36 -86 -6 -7 -8 -13 -4 -13 3 0 1 -11 -4
-25 -6 -16 -6 -26 1 -31 6 -3 8 -13 5 -21 -11 -28 12 -3 28 32 21 44 40 36 32
-14 -3 -20 6 -2 19 39 28 86 30 94 10 60 l-14 -25 -1 37 c0 39 17 88 32 88 4
0 8 -25 8 -56 0 -30 4 -53 9 -50 5 3 9 29 9 58 1 54 15 101 40 131 8 9 11 17
6 17 -20 0 -39 -21 -51 -52 -11 -31 -12 -31 -12 -7 -1 14 3 29 8 35 12 12 53
152 49 166 -2 6 -16 -18 -30 -53z"/>
<path d="M1961 1994 c0 -11 3 -14 6 -6 3 7 2 16 -1 19 -3 4 -6 -2 -5 -13z"/>
<path d="M1951 1954 c0 -11 3 -14 6 -6 3 7 2 16 -1 19 -3 4 -6 -2 -5 -13z"/>
<path d="M1230 1883 c0 -50 32 -84 71 -76 34 6 49 -18 30 -48 -6 -11 -7 -19
-1 -19 25 0 40 71 26 118 -10 30 -22 28 -21 -4 0 -22 -5 -27 -27 -30 -25 -2
-28 1 -28 26 0 19 6 30 18 33 13 4 11 5 -5 6 -13 1 -23 7 -23 16 0 8 -9 15
-20 15 -16 0 -20 -7 -20 -37z"/>
<path d="M1750 1895 c0 -16 16 -20 24 -6 3 5 -1 11 -9 15 -9 3 -15 0 -15 -9z"/>
<path d="M2670 1860 c-6 -11 -8 -20 -6 -20 3 0 10 9 16 20 6 11 8 20 6 20 -3
0 -10 -9 -16 -20z"/>
<path d="M1997 1816 c-7 -43 -3 -56 14 -39 7 7 7 22 1 44 l-8 34 -7 -39z"/>
<path d="M1155 1676 c0 -25 19 -25 29 0 3 9 1 12 -4 9 -6 -3 -10 -1 -10 4 0 6
-3 11 -7 11 -5 0 -8 -11 -8 -24z"/>
<path d="M1650 1640 c0 -5 5 -10 10 -10 6 0 10 5 10 10 0 6 -4 10 -10 10 -5 0
-10 -4 -10 -10z"/>
<path d="M1102 1550 c0 -14 2 -19 5 -12 2 6 2 18 0 25 -3 6 -5 1 -5 -13z"/>
<path d="M1083 1474 c-20 -21 -16 -42 3 -22 9 9 15 21 13 26 -2 6 -9 4 -16 -4z"/>
<path d="M1361 1454 c0 -11 3 -14 6 -6 3 7 2 16 -1 19 -3 4 -6 -2 -5 -13z"/>
<path d="M1105 1290 c-4 -6 1 -7 11 -3 13 5 15 3 9 -7 -5 -9 -4 -11 3 -6 7 4
12 11 12 17 0 12 -27 12 -35 -1z"/>
<path d="M2475 586 c-4 -18 -5 -64 -3 -102 5 -91 50 -294 64 -294 31 0 37 30
31 168 -6 148 -18 209 -48 241 -27 29 -37 26 -44 -13z"/>
<path d="M3115 566 c-34 -34 -48 -96 -49 -216 0 -122 14 -181 51 -209 78 -62
132 16 133 195 0 109 -16 184 -51 228 -25 32 -53 33 -84 2z"/>
<path d="M2772 198 c-13 -77 -30 -145 -42 -165 l-19 -33 89 0 c50 0 90 1 90 3
0 2 -14 32 -31 68 -20 40 -38 100 -48 161 l-17 96 -22 -130z"/>
</g>
</svg>
